<?xml version="1.0" standalone="no"?>
<!DOCTYPE svg PUBLIC "-//W3C//DTD SVG 20010904//EN"
  "http://www.w3.org/TR/2001/REC-SVG-20010904/DTD/svg10.dtd">
<svg version="1.0" xmlns="http://www.w3.org/2000/svg"
     width="2771.000000pt" height="750.000000pt" viewBox="0 0 2771.000000 750.000000"
     preserveAspectRatio="xMidYMid meet">
<!--  <style>-->
  <!--    :root {-->
  <!--    &#45;&#45;left-wheel: green;-->
  <!--    }-->
  <!--  </style>-->

  <g transform="translate(0.000000,750.000000) scale(0.100000,-0.100000)"
     fill="#FFFFFF" stroke="none" style="fill:black">
    <path d="M13810 7493 c-579 -21 -1137 -93 -1403 -179 -172 -56 -347 -165 -697
-433 -495 -380 -1364 -1021 -1700 -1253 -320 -221 -394 -264 -503 -293 -54
-15 -101 -24 -104 -21 -24 24 134 203 234 267 109 68 261 118 366 119 60 0 87
14 87 44 0 32 -13 35 -111 25 -273 -27 -518 -186 -640 -415 l-36 -68 -154 -27
c-291 -51 -644 -89 -1109 -119 -168 -11 -327 -22 -355 -25 -1058 -110 -1690
-228 -2765 -519 -998 -270 -2003 -690 -2745 -1146 -33 -21 -143 -88 -245 -150
-253 -155 -560 -358 -710 -470 -159 -119 -235 -194 -249 -246 -17 -66 -40
-317 -51 -574 -6 -135 -15 -276 -21 -313 -26 -160 -136 -295 -311 -381 -70
-35 -142 -59 -293 -97 -110 -28 -216 -58 -235 -68 -68 -35 -61 -100 13 -115
100 -21 409 -26 1497 -26 1323 0 1494 6 1681 56 l56 16 227 -91 227 -91 240 0
239 0 -59 87 c-214 321 -332 719 -332 1123 0 171 18 329 47 417 17 52 135 286
141 280 2 -2 -10 -47 -26 -100 -161 -520 -103 -1085 158 -1565 291 -534 800
-906 1407 -1029 129 -26 156 -28 379 -28 225 0 249 2 380 29 551 112 1005 411
1304 856 164 245 246 446 318 780 15 71 18 131 18 360 0 263 -1 281 -28 410
-28 134 -91 332 -141 443 -36 79 -17 64 43 -36 133 -221 180 -368 202 -637 38
-471 -81 -952 -325 -1316 l-46 -69 1001 -3 1001 -2 115 -85 115 -85 1056 0
1057 0 129 85 129 85 762 0 761 0 23 -98 c13 -53 29 -103 35 -111 9 -12 92
-13 541 -7 931 12 2470 35 2790 42 l310 6 112 -111 c61 -61 119 -111 129 -111
10 0 137 64 283 141 146 78 309 164 361 192 52 27 96 50 97 51 1 1 -17 31 -41
66 -135 201 -246 460 -300 707 -21 97 -20 148 6 229 l21 69 8 -45 c4 -25 12
-85 19 -135 23 -166 106 -429 187 -588 120 -240 331 -499 546 -672 245 -198
563 -344 892 -411 132 -27 154 -29 385 -29 236 1 250 2 395 32 185 39 321 86
490 168 460 223 815 605 1004 1083 42 104 111 353 111 398 0 45 17 24 35 -43
18 -67 18 -68 -4 -153 -51 -194 -156 -430 -255 -578 -31 -46 -56 -86 -56 -88
0 -3 34 -4 75 -2 64 3 74 1 70 -13 -3 -8 1 -23 7 -32 12 -16 38 -16 433 12
398 29 942 66 1141 78 l91 6 108 -82 c59 -44 116 -81 125 -81 9 0 104 74 210
165 l193 165 111 0 c74 0 116 4 124 12 7 7 12 31 12 54 l0 41 127 7 c149 8
239 25 318 61 32 14 63 25 69 25 7 0 68 -25 137 -56 68 -30 144 -64 169 -74
25 -10 97 -41 160 -69 124 -56 145 -60 159 -34 17 33 121 462 115 477 -3 8
-61 32 -137 56 -214 67 -242 77 -239 86 1 5 13 41 26 79 30 85 46 178 46 267
l0 66 58 59 c140 142 142 278 5 424 -47 51 -63 59 -63 34 0 -33 -36 -35 -482
-33 l-443 3 4 30 c1 17 7 32 11 35 4 3 211 3 459 0 l451 -5 0 320 c0 277 -3
333 -20 414 -21 105 -69 213 -134 306 -52 74 -64 65 122 91 115 16 123 16 135
0 11 -14 29 -16 132 -14 l120 3 5 225 c6 261 6 260 -73 260 -28 0 -48 2 -45 5
2 3 38 14 79 24 155 40 276 114 348 212 40 55 43 56 99 63 92 11 174 35 224
67 152 97 587 637 926 1149 100 152 205 356 205 399 0 40 -33 75 -92 98 -71
28 -316 23 -541 -11 -184 -27 -651 -84 -905 -111 -284 -30 -294 -32 -369 -69
-128 -63 -304 -183 -537 -365 -40 -31 -102 -66 -154 -87 -129 -52 -236 -114
-385 -225 -203 -150 -394 -244 -601 -294 -151 -36 -226 -45 -389 -45 -481 0
-1200 179 -2255 563 -258 94 -625 237 -825 322 -47 20 -121 51 -165 70 -44 18
-120 52 -170 75 -49 23 -160 71 -245 107 -223 94 -506 212 -570 238 -30 12
-176 73 -325 135 -148 62 -306 127 -350 145 -44 18 -125 51 -180 74 -568 237
-869 334 -1345 435 -331 70 -840 144 -1220 175 -244 21 -939 61 -1220 71 -253
9 -847 11 -1050 3z m1280 -83 c597 -30 993 -59 1350 -101 509 -58 993 -153
1390 -271 l45 -14 30 -157 c17 -90 36 -162 45 -171 8 -8 38 -23 65 -34 28 -11
210 -86 405 -167 195 -81 391 -162 435 -180 44 -18 267 -110 495 -205 228 -95
451 -187 495 -205 44 -18 244 -101 445 -185 201 -83 387 -159 413 -168 l48
-16 112 112 c62 62 115 110 119 107 18 -18 649 -246 1053 -380 529 -175 851
-260 1241 -327 178 -30 203 -32 439 -33 240 0 255 1 370 29 251 59 471 161
657 303 81 62 200 143 210 143 4 0 -51 -53 -124 -117 -73 -64 -188 -168 -254
-230 -103 -96 -135 -119 -209 -154 -212 -98 -441 -167 -725 -218 -248 -45
-300 -65 -300 -116 0 -69 123 -103 610 -167 166 -22 203 -23 700 -21 472 2
567 5 945 33 231 16 458 34 504 40 47 5 87 7 90 4 12 -12 -87 -90 -155 -123
-38 -19 -115 -45 -172 -59 l-102 -26 -22 23 c-20 22 -26 23 -117 17 -371 -23
-1497 -15 -1911 14 -344 24 -1068 151 -1575 275 -449 110 -846 195 -1145 244
-288 48 -775 84 -1055 79 l-170 -3 0 -25 c0 -24 2 -25 90 -31 50 -4 151 -7
225 -8 269 -2 740 -46 985 -91 396 -73 748 -150 1022 -221 395 -104 1066 -226
1503 -273 252 -28 657 -38 1352 -35 l677 4 4 -22 c4 -19 -3 -25 -47 -39 -85
-28 -216 -99 -301 -163 -78 -59 -82 -61 -141 -61 -56 0 -63 -3 -79 -27 l-18
-26 89 6 c49 4 170 17 269 29 l180 23 -123 5 -124 5 30 22 c49 36 182 101 252
122 36 12 66 21 68 21 1 0 1 -71 0 -157 l-3 -157 -28 -7 c-15 -4 -96 -17 -179
-29 l-150 -22 -26 25 c-57 52 -77 60 -145 53 -62 -7 -65 -9 -99 -55 -43 -58
-27 -55 -403 -72 -794 -37 -1983 51 -2995 221 -109 18 -362 54 -605 85 -60 7
-236 26 -390 41 -249 25 -321 28 -655 28 -346 1 -385 -1 -505 -22 -185 -32
-238 -48 -340 -97 -307 -149 -657 -610 -977 -1284 -38 -80 -95 -200 -126 -266
-305 -645 -562 -995 -826 -1125 -119 -58 -121 -59 -1023 -60 l-825 -1 31 38
c18 21 64 77 102 126 39 48 79 92 89 97 12 6 233 10 592 10 640 0 658 2 787
67 262 132 515 457 778 1000 324 672 400 814 560 1056 242 367 493 596 728
666 140 42 299 62 535 68 483 12 945 -33 2135 -211 165 -24 361 -52 435 -61
74 -9 182 -22 240 -30 436 -61 1332 -132 1949 -156 l304 -12 89 29 c61 19 83
30 71 35 -10 3 -160 9 -333 12 -591 12 -1449 78 -2115 162 -354 45 -513 67
-658 89 -464 72 -574 88 -827 120 -726 94 -1341 112 -1705 50 -256 -43 -460
-170 -669 -413 -242 -282 -445 -624 -719 -1211 -277 -593 -498 -918 -734
-1081 -114 -79 -181 -100 -338 -108 -187 -9 -1045 -14 -1045 -6 0 4 49 73 108
154 344 463 614 942 780 1381 123 326 199 644 232 973 14 139 8 578 -9 676 -7
35 -10 65 -7 68 2 2 186 -2 408 -9 516 -17 1376 -17 1558 0 367 34 681 95 858
167 94 38 138 68 179 122 24 31 28 46 28 102 0 55 -5 74 -29 116 -190 324
-1223 851 -2271 1158 -559 164 -1217 276 -2215 376 -441 45 -1011 65 -1625 58
-678 -8 -910 -27 -1019 -84 -75 -40 -292 -262 -417 -428 -166 -219 -488 -701
-645 -966 l-63 -106 -111 -69 c-206 -127 -299 -235 -286 -330 3 -24 5 -44 3
-44 -9 0 -241 -47 -377 -76 -324 -69 -558 -133 -643 -176 -32 -16 -44 -33 -86
-121 -90 -187 -333 -875 -390 -1102 -104 -415 -127 -1041 -61 -1640 11 -99 20
-183 20 -187 0 -5 -225 -8 -499 -8 -275 0 -506 -3 -515 -6 -21 -8 -21 -50 0
-58 9 -3 242 -6 519 -6 l504 0 6 -47 c3 -27 12 -84 20 -128 7 -44 11 -83 9
-87 -7 -10 -1191 -10 -1198 0 -2 4 -10 46 -16 92 -13 99 -69 358 -112 515 -57
213 -138 491 -162 560 -212 620 -617 1066 -1166 1285 -448 179 -1019 208
-1520 79 -244 -64 -428 -134 -639 -245 -437 -230 -754 -548 -937 -940 -70
-151 -86 -202 -225 -709 -54 -197 -130 -467 -165 -585 -30 -101 -39 -119 -73
-150 -76 -69 -219 -102 -529 -120 -255 -15 -2699 -10 -2726 6 -15 9 8 18 130
48 82 20 173 44 203 53 50 15 54 15 66 0 11 -16 104 -17 1272 -17 1138 0 1262
2 1274 16 9 11 10 20 2 32 -9 16 -105 17 -1244 20 l-1234 2 77 51 c134 87 231
220 262 360 8 36 20 179 26 324 7 143 17 314 23 380 l12 120 1241 3 c1337 2
1276 0 1259 52 l-6 20 -1240 0 c-957 0 -1239 3 -1239 12 0 19 105 116 210 194
291 217 984 648 1388 864 176 94 555 277 696 337 402 170 597 244 941 358 254
85 539 169 845 251 1089 288 1957 433 2955 494 412 25 1012 95 1182 137 22 5
23 3 20 -78 l-2 -84 30 0 c30 0 30 1 37 66 12 107 17 114 92 133 89 22 91 22
92 -19 1 -70 89 -125 281 -175 356 -94 741 -111 940 -44 57 20 155 77 218 127
141 114 235 224 456 532 132 185 321 428 424 545 99 112 281 376 384 553 83
145 104 197 109 262 4 55 2 63 -22 87 -15 14 -43 29 -63 33 l-36 7 44 25 c206
118 802 215 1496 243 259 10 1043 4 1333 -10z m-2836 -340 c43 -16 33 -53 -52
-205 -133 -239 -281 -456 -434 -635 -128 -151 -237 -292 -410 -530 -190 -262
-263 -354 -350 -436 -236 -224 -432 -268 -893 -203 -156 22 -398 80 -454 108
-55 29 -76 56 -64 84 11 24 31 38 238 172 66 43 210 141 320 219 180 126 290
206 579 416 49 36 252 187 450 336 591 443 839 611 991 671 38 15 48 15 79 3z
m5996 -177 c36 -14 234 -95 440 -180 206 -86 411 -170 455 -188 107 -43 506
-210 575 -239 30 -14 107 -45 170 -71 139 -57 205 -85 420 -180 158 -70 337
-147 503 -215 42 -17 77 -35 77 -38 0 -10 -153 -162 -163 -162 -5 0 -113 43
-240 96 -128 53 -257 107 -287 119 -30 13 -215 89 -410 170 -195 81 -391 162
-435 180 -44 18 -228 94 -410 170 -181 75 -366 152 -410 170 -44 18 -123 51
-175 72 -52 22 -154 64 -227 94 l-131 54 -25 122 c-13 68 -22 125 -20 127 5 4
178 -55 293 -101z m-3810 7 c458 -17 978 -59 1375 -111 931 -121 1323 -201
1920 -396 1056 -343 1995 -875 1995 -1129 0 -59 -29 -90 -125 -135 -264 -124
-815 -198 -1470 -199 -195 0 -1375 29 -1382 35 -2 1 20 109 48 241 27 131 61
293 74 359 14 66 60 291 104 500 80 388 82 405 40 405 -27 0 -34 -20 -68 -185
-17 -83 -48 -235 -70 -340 -22 -104 -74 -354 -115 -555 -42 -201 -79 -377 -84
-393 l-7 -27 -1023 -4 -1023 -5 6 32 c4 18 45 185 90 372 46 187 129 525 184
750 56 226 115 466 133 535 33 129 33 160 0 160 -39 0 -2 138 -427 -1593 -34
-142 -65 -260 -67 -261 -5 -5 -1254 -26 -1485 -26 -113 0 -203 4 -203 9 0 5 9
37 19 72 11 35 38 132 61 214 42 152 163 580 225 800 19 66 64 226 100 355 36
129 82 291 101 360 20 69 38 133 40 142 3 9 15 19 27 21 45 9 751 7 1007 -3z
m-1119 -62 c-30 -104 -47 -161 -126 -443 -42 -148 -91 -324 -110 -390 -18 -66
-50 -178 -70 -250 -20 -71 -49 -175 -65 -230 -16 -55 -48 -167 -70 -250 -23
-82 -53 -188 -67 -234 -13 -46 -22 -89 -19 -97 3 -8 0 -14 -7 -14 -76 0 -597
21 -614 25 -21 5 -21 8 -16 117 14 281 -76 488 -211 488 -51 0 -138 -23 -226
-61 -40 -17 -74 -29 -76 -27 -9 10 421 664 582 884 167 230 335 410 430 465
82 47 281 73 581 78 l102 1 -18 -62z m14127 -755 c2 -16 -123 -176 -494 -630
-273 -334 -504 -616 -513 -625 -14 -15 -88 -19 -736 -38 -396 -12 -814 -22
-930 -23 -207 -2 -210 -2 -213 19 -3 18 129 135 691 616 l693 595 55 6 c30 4
209 18 399 32 293 21 731 55 875 68 22 2 69 4 105 3 59 -1 65 -3 68 -23z
m-15456 -613 c36 -28 68 -102 85 -195 26 -142 3 -383 -44 -454 -15 -23 -17
-24 -132 -18 -193 9 -556 84 -663 138 -133 67 -32 192 317 394 236 136 380
181 437 135z m4380 -577 l316 -6 13 -96 c9 -63 14 -191 14 -376 -1 -257 -3
-294 -29 -450 -47 -290 -122 -560 -231 -837 -62 -155 -228 -501 -295 -613 -23
-38 -65 -108 -93 -155 -113 -188 -436 -648 -501 -713 -16 -16 -146 -17 -2440
-17 -1333 0 -2659 3 -2948 7 l-525 6 -22 228 c-53 544 -50 900 10 1323 27 188
70 352 177 666 166 489 258 720 302 761 52 49 308 119 810 219 l254 51 41 -19
c22 -11 69 -29 105 -41 92 -30 424 -91 556 -104 101 -9 115 -8 150 9 31 15 45
32 69 83 l30 64 125 -7 c316 -15 1017 -18 1605 -6 609 12 1469 25 1956 28 130
1 378 -1 551 -5z m7918 -43 c-11 -16 -25 -32 -29 -35 -5 -2 -27 -35 -50 -73
-54 -89 -55 -126 -5 -174 l36 -35 -54 4 c-262 20 -716 90 -741 113 -10 9 37
20 253 60 172 32 382 89 510 139 98 38 106 38 80 1z m-3860 -771 c311 -21
1040 -110 1335 -164 144 -26 593 -85 915 -120 826 -90 1666 -116 2208 -68 l73
6 -70 -134 c-111 -213 -185 -424 -255 -724 -19 -82 -37 -163 -40 -180 -123
-680 -232 -1197 -269 -1288 -14 -32 -19 -35 -73 -41 -119 -14 -327 -60 -644
-143 -397 -104 -419 -109 -550 -123 -318 -35 -533 68 -641 305 -16 36 -43 115
-60 177 -114 422 -250 792 -440 1198 -160 343 -261 493 -466 691 -159 155
-336 275 -546 374 -472 221 -1029 210 -1533 -31 -101 -48 -293 -172 -410 -266
-241 -192 -437 -430 -555 -674 -98 -203 -276 -751 -389 -1201 -71 -283 -105
-360 -194 -448 -65 -64 -116 -93 -211 -122 -57 -17 -243 -18 -3971 -20 l-3912
-3 -7 70 c-4 38 -8 73 -9 76 -1 7 5486 5 5493 -2 2 -2 -6 -15 -18 -28 -26 -27
-25 -54 2 -70 16 -9 26 -3 70 46 l52 57 880 4 c772 4 887 6 937 21 297 83 588
414 884 1005 40 80 109 225 154 321 162 349 270 547 432 793 214 324 389 506
580 603 218 110 633 144 1248 103z m4760 -244 c0 -3 -11 -5 -25 -5 -17 0 -23
4 -19 15 5 11 11 12 25 4 10 -5 19 -12 19 -14z m146 -142 c21 -25 51 -69 66
-97 77 -141 81 -163 87 -539 4 -216 3 -326 -4 -324 -5 3 -27 10 -47 18 -21 7
-38 16 -38 20 0 4 -53 20 -117 35 -65 15 -119 28 -121 30 -2 1 2 21 8 44 9 34
30 235 31 290 0 8 -5 71 -11 140 -12 145 -33 238 -58 256 -39 30 -120 9 -169
-44 l-24 -27 7 25 c3 14 17 43 30 65 12 22 34 61 48 87 28 51 37 54 141 61
138 9 129 11 171 -40z m-19291 -144 c5 -5 24 -9 43 -9 50 0 229 -38 276 -59
23 -10 71 -29 109 -41 37 -13 67 -27 67 -31 0 -3 15 -12 33 -20 39 -15 151
-87 227 -145 108 -82 282 -279 331 -375 12 -24 27 -48 34 -55 6 -7 23 -39 35
-71 13 -32 27 -60 31 -63 4 -3 19 -45 34 -95 14 -49 31 -98 36 -108 18 -34 39
-213 39 -337 0 -125 -21 -304 -39 -337 -6 -10 -17 -45 -26 -78 -15 -56 -67
-177 -100 -235 -8 -14 -25 -46 -39 -71 -14 -25 -34 -57 -45 -70 -192 -231
-317 -344 -461 -416 -30 -16 -57 -31 -61 -35 -3 -4 -34 -19 -70 -33 -35 -15
-77 -32 -94 -40 -38 -17 -135 -41 -200 -51 -27 -3 -56 -12 -64 -18 -19 -15
-412 -15 -432 0 -8 6 -34 14 -59 18 -72 11 -173 37 -195 51 -11 6 -38 18 -60
25 -49 16 -225 109 -225 119 0 4 -11 13 -25 19 -95 43 -341 297 -401 414 -9
18 -20 35 -24 38 -15 10 -99 196 -115 255 -9 33 -23 74 -30 90 -41 93 -53 453
-21 618 9 49 21 96 26 105 5 10 16 44 25 77 27 100 123 287 200 390 122 164
309 329 455 401 30 15 57 31 60 35 3 5 37 20 75 34 39 14 84 32 100 40 37 17
221 55 267 55 19 0 38 4 44 9 18 19 219 19 239 0z m14340 -13 c129 -21 182
-34 229 -55 22 -10 59 -24 81 -31 40 -13 206 -98 215 -111 3 -3 20 -14 38 -23
77 -40 273 -226 343 -326 13 -19 27 -37 31 -40 3 -3 23 -32 42 -65 34 -57 46
-81 103 -204 14 -30 35 -93 47 -140 12 -47 24 -90 28 -96 3 -5 12 -55 18 -109
14 -108 8 -404 -9 -466 -5 -19 -21 -78 -36 -130 -32 -119 -131 -319 -209 -424
-70 -95 -198 -224 -288 -290 -35 -25 -72 -54 -83 -62 -11 -9 -41 -26 -67 -39
-26 -12 -53 -27 -60 -33 -7 -6 -38 -20 -68 -32 -30 -11 -69 -27 -86 -35 -39
-18 -190 -55 -224 -55 -15 0 -32 -6 -39 -13 -16 -16 -411 -17 -432 -1 -8 6
-34 14 -59 18 -72 11 -173 37 -195 51 -11 6 -38 18 -60 25 -49 16 -199 97
-280 152 -77 53 -267 244 -327 328 -44 63 -109 182 -156 285 -12 28 -33 94
-46 147 -13 53 -27 101 -30 106 -3 6 -11 68 -16 138 -11 131 1 376 19 412 5 9
21 66 35 127 15 60 30 112 34 115 4 3 21 38 36 78 16 40 34 77 41 82 6 5 22
32 35 60 13 27 27 50 31 50 4 0 19 21 34 46 30 51 216 242 285 292 89 64 166
112 198 123 17 6 32 14 32 19 0 4 35 20 78 36 42 15 82 31 87 35 16 12 129 39
233 55 208 33 224 33 417 0z m4705 -88 c23 -111 32 -277 21 -402 -12 -140 -25
-186 -51 -186 -31 0 -213 97 -245 130 -40 42 -41 110 -4 190 52 108 219 320
253 320 9 0 18 -19 26 -52z m-268 -569 l33 -14 -70 -6 c-66 -5 -95 -2 -67 8 6
3 12 15 12 28 0 49 10 56 36 26 13 -16 38 -35 56 -42z m666 -904 c-9 -88 -32
-185 -51 -221 -6 -13 -25 -49 -41 -80 -18 -35 -63 -91 -115 -144 -72 -72 -101
-94 -181 -133 -52 -25 -120 -52 -150 -59 -62 -14 -435 -18 -511 -5 l-46 8 21
72 c12 40 24 77 28 82 3 6 18 71 32 145 15 74 31 144 36 155 5 11 14 53 20 93
9 53 15 70 24 63 17 -14 190 -31 321 -31 117 0 306 17 315 29 3 3 47 17 98 29
52 13 119 37 150 52 32 16 58 28 58 27 1 -1 -3 -38 -8 -82z m147 -396 c88 -27
163 -53 166 -57 6 -6 -17 -109 -67 -299 -9 -35 -21 -63 -26 -63 -9 0 -427 179
-471 202 -16 8 -14 12 20 37 49 36 142 135 178 189 15 23 30 42 34 42 3 0 78
-23 166 -51z m-12237 -16 c1151 -3 2091 -10 2090 -14 -2 -4 -49 -62 -106 -128
l-102 -121 -2789 0 -2790 0 -6 58 c-4 31 -11 73 -15 92 -8 31 -14 93 -11 113
1 9 1012 9 3729 0z m-3759 -346 c5 -13 12 -49 16 -80 l7 -57 -103 0 c-370 1
-1080 30 -1132 46 -16 5 -18 12 -12 52 4 26 9 50 12 55 2 4 274 7 604 7 l599
0 9 -23z m-1302 -55 c-37 -41 -13 -82 58 -101 41 -11 214 -25 440 -37 93 -5
120 -9 95 -14 -74 -16 -563 -41 -725 -38 l-170 3 150 102 c148 100 184 120
152 85z m13783 -242 c-20 -13 -33 -13 -25 0 3 6 14 10 23 10 15 0 15 -2 2 -10z"/>
    <path fill="#FFFFFF" d="M13034 7135 c-9 -6 -15 -20 -12 -31 3 -18 19 -19 458 -26 1708 -26
2739 -121 3520 -324 603 -157 1109 -326 1586 -529 272 -117 386 -170 789 -372
236 -118 495 -245 575 -280 419 -187 870 -345 1230 -431 306 -73 811 -153
1275 -201 133 -14 716 -58 882 -67 121 -6 133 -5 139 11 16 41 -6 50 -152 57
-600 30 -1291 104 -1759 188 -450 81 -839 195 -1285 375 -279 113 -393 166
-915 426 -741 369 -1163 539 -1900 764 -88 27 -150 44 -450 123 -719 191
-1887 305 -3250 318 -264 2 -533 6 -598 8 -79 2 -122 -1 -133 -9z"/>
    <path fill="#FFFFFF" d="M17053 3673 c-18 -7 -16 -38 2 -53 9 -8 13 -21 10 -34 -5 -16 -4 -18
4 -7 8 13 21 12 93 -3 46 -10 88 -21 93 -24 6 -4 53 -16 105 -28 83 -18 95
-23 92 -40 -2 -10 -7 -21 -11 -24 -4 -3 -18 -34 -31 -70 -13 -36 -31 -78 -40
-95 -10 -16 -23 -48 -30 -70 -7 -22 -21 -56 -31 -75 -10 -19 -31 -66 -45 -105
-14 -38 -30 -75 -34 -80 -5 -6 -21 -44 -36 -85 -14 -41 -30 -77 -33 -80 -4 -3
-17 -34 -30 -70 -13 -36 -29 -75 -37 -87 -8 -13 -26 -56 -40 -95 -15 -40 -30
-75 -34 -78 -4 -3 -13 -23 -20 -45 -7 -22 -27 -71 -45 -110 -17 -38 -40 -94
-51 -124 -10 -29 -25 -56 -32 -59 -8 -2 -30 0 -50 6 -55 17 -289 42 -322 35
-40 -8 -54 -26 -40 -52 6 -12 14 -21 18 -21 4 0 104 -13 222 -29 171 -23 218
-26 228 -16 14 13 91 188 327 750 58 139 176 417 205 485 100 234 103 243 93
259 -6 10 -87 36 -234 73 -223 57 -243 61 -266 51z"/>
    <path fill="#FFFFFF" d="M1431 2388 c-121 -21 -225 -140 -271 -311 -38 -139 -18 -271 61 -402
108 -182 329 -216 471 -73 50 51 95 129 114 202 18 66 18 243 0 327 -27 128
-68 180 -173 223 -83 34 -144 44 -202 34z m124 -80 c3 -2 -9 -36 -26 -73 -57
-126 -72 -257 -45 -386 18 -82 66 -180 102 -207 l28 -20 -32 -16 c-41 -21
-153 -21 -198 0 -74 35 -135 134 -161 260 -14 71 -14 84 1 161 38 194 134 298
268 290 32 -2 60 -6 63 -9z m116 -48 c52 -28 85 -177 76 -340 -9 -145 -42
-220 -98 -220 -38 0 -63 39 -84 132 -35 154 0 391 62 427 22 13 21 13 44 1z"/>
    <path fill="#FFFFFF" d="M27055 6014 c-82 -7 -307 -25 -500 -39 -539 -39 -566 -42 -598 -66
-53 -38 -1242 -1061 -1246 -1071 -2 -6 38 -8 115 -4 66 4 445 16 844 27 399
11 725 21 726 22 2 3 907 1112 922 1130 14 16 11 17 -49 16 -35 -1 -131 -7
-214 -15z"/>
    <path fill="#FFFFFF" d="M15737 4474 c-100 -22 -165 -49 -238 -97 -70 -48 -130 -119 -147
-176 -9 -28 -26 -47 -71 -79 -71 -50 -114 -114 -109 -164 2 -27 8 -34 30 -36
24 -3 28 1 38 38 10 37 72 120 89 120 4 0 18 -22 30 -50 46 -102 178 -190 347
-231 123 -31 333 -31 449 0 113 29 219 86 283 149 29 30 55 52 57 50 2 -1 7
-19 12 -38 8 -30 13 -35 39 -35 26 0 29 4 32 34 3 24 -5 47 -27 83 -22 35 -31
62 -31 92 0 131 -158 275 -365 332 -85 24 -328 28 -418 8z m418 -79 c129 -36
223 -101 269 -185 15 -28 26 -53 24 -55 -2 -2 -37 12 -78 32 -120 57 -233 77
-450 77 -203 1 -372 -21 -475 -60 -27 -11 -16 15 27 62 65 70 139 108 273 139
82 19 328 13 410 -10z m50 -224 c90 -18 199 -65 224 -95 11 -14 9 -21 -14 -52
-88 -116 -252 -174 -489 -174 -240 0 -414 63 -487 178 -40 63 -36 91 16 109
172 60 542 77 750 34z"/>
    <path fill="#FFFFFF" d="M11710 4253 c-14 -10 -79 -63 -145 -118 -179 -150 -179 -150 -314
-190 -69 -20 -133 -41 -143 -46 -17 -9 -18 -27 -16 -287 l3 -277 163 -3 162
-2 0 -604 c0 -499 2 -606 14 -615 9 -8 100 -11 312 -9 l299 3 5 1065 c4 905 3
1068 -9 1083 -12 15 -33 17 -160 17 -122 0 -151 -3 -171 -17z m268 -1071 l2
-1012 -242 2 -243 3 -2 599 c-1 329 -4 605 -7 612 -4 11 -40 14 -166 14 l-160
0 2 222 3 221 55 18 c30 9 87 27 126 38 65 19 85 32 230 152 87 72 168 135
179 140 11 4 65 7 120 6 l100 -2 3 -1013z"/>
    <path fill="#FFFFFF" d="M11560 4004 c-88 -79 -126 -105 -232 -159 l-128 -65 0 -158 c0 -110
4 -162 12 -170 8 -8 59 -12 165 -12 l153 0 0 -566 c0 -370 4 -572 10 -585 10
-18 23 -19 190 -19 98 0 185 3 194 6 14 6 16 95 16 909 0 814 -2 903 -16 909
-9 3 -70 6 -137 6 l-122 -1 -105 -95z"/>
    <path fill="#FFFFFF" d="M5925 3343 c-195 -13 -374 -62 -539 -146 -361 -185 -619 -528 -681
-908 -88 -545 180 -1054 690 -1309 398 -198 865 -182 1269 46 101 57 112 61
100 42 -5 -7 -3 -8 5 -4 7 5 10 11 6 14 -3 3 3 11 14 16 35 20 166 140 216
200 28 32 58 67 67 77 9 10 26 36 37 58 11 21 27 45 35 54 8 8 27 43 41 78 15
35 31 66 35 69 4 3 18 41 30 85 12 44 29 103 38 130 14 40 17 90 17 245 -1
178 -3 200 -23 250 -14 35 -20 67 -17 90 3 27 3 29 -3 10 -7 -22 -11 -17 -37
50 -63 166 -151 304 -281 440 -239 248 -562 396 -904 412 -41 2 -93 2 -115 1z
m325 -98 c334 -81 610 -265 775 -516 309 -468 261 -1027 -121 -1428 -205 -216
-495 -354 -794 -380 -130 -11 -133 -11 -254 0 -527 48 -963 421 -1073 915 -25
112 -25 377 0 494 101 469 495 839 986 926 101 18 391 11 481 -11z"/>
    <path fill="#FFFFFF" d="M5850 3174 c-127 -22 -300 -73 -334 -99 -17 -13 -9 -25 130 -188 82
-96 152 -172 156 -169 3 4 20 72 37 152 51 238 53 245 83 248 17 2 28 -3 32
-15 10 -24 66 -202 106 -333 l32 -104 106 114 c215 231 217 233 240 226 31
-10 29 -27 -26 -221 -27 -93 -45 -172 -40 -173 5 -2 70 31 146 74 193 109 183
104 204 93 10 -5 18 -18 18 -28 0 -9 -50 -80 -111 -156 -61 -77 -106 -141
-100 -143 9 -3 241 35 327 53 30 6 58 -17 50 -42 -4 -11 -77 -64 -177 -128
-111 -70 -166 -111 -157 -115 7 -4 74 -24 148 -45 74 -20 155 -42 179 -49 52
-15 71 -37 55 -63 -8 -13 -57 -28 -177 -53 -156 -34 -196 -47 -172 -57 33 -13
290 -181 299 -195 8 -14 7 -21 -6 -34 -15 -15 -32 -13 -222 18 -113 18 -206
30 -206 27 0 -4 47 -76 105 -159 103 -150 122 -194 89 -207 -19 -7 -27 -3
-214 117 -85 55 -156 98 -158 95 -2 -2 10 -93 27 -203 17 -110 29 -207 25
-216 -3 -9 -16 -16 -28 -16 -16 0 -49 37 -135 155 -63 86 -117 158 -121 160
-4 3 -17 -32 -29 -78 -74 -284 -88 -318 -124 -288 -9 6 -32 80 -52 164 -46
192 -45 189 -55 185 -5 -2 -62 -68 -127 -148 -95 -116 -124 -145 -143 -145
-23 0 -25 3 -23 45 0 25 19 126 41 225 21 99 38 183 36 187 -2 3 -80 -36 -173
-88 -93 -52 -178 -94 -189 -94 -23 0 -38 32 -26 52 5 7 48 65 98 128 49 63 94
121 100 129 9 12 6 13 -14 9 -14 -3 -94 -20 -178 -38 -143 -31 -154 -32 -170
-16 -26 26 -9 42 147 141 77 49 141 93 141 96 0 3 -53 19 -117 34 -65 15 -140
33 -167 39 -56 13 -77 36 -60 63 6 11 60 32 135 54 68 21 150 45 183 56 l58
18 -58 40 c-151 102 -260 180 -266 190 -13 17 -9 34 11 44 14 8 64 2 185 -21
91 -17 168 -29 171 -26 4 3 -41 69 -99 146 -58 77 -106 147 -106 156 0 8 8 20
18 25 22 12 18 13 200 -93 74 -43 135 -76 137 -74 2 2 -19 89 -46 193 -61 229
-60 225 -66 225 -16 0 -129 -86 -190 -144 -152 -144 -259 -329 -308 -536 -26
-109 -31 -290 -10 -411 115 -691 864 -1073 1497 -764 468 228 703 757 551
1240 -138 438 -534 742 -988 760 -60 2 -121 2 -135 -1z"/>
    <path d="M5897 2803 c-15 -71 -29 -137 -32 -148 -4 -14 9 -36 44 -75 l49 -55
36 34 c20 19 36 43 36 54 0 23 -92 317 -100 317 -3 0 -18 -57 -33 -127z"/>
    <path d="M5560 2858 c0 -7 13 -60 29 -118 17 -58 35 -124 41 -148 9 -36 18
-46 63 -72 29 -16 55 -30 58 -30 3 0 11 29 18 65 l13 64 -107 126 c-59 69
-109 125 -111 125 -2 0 -4 -5 -4 -12z"/>
    <path d="M6227 2705 c-115 -124 -113 -120 -87 -190 13 -33 28 -32 86 8 l48 32
33 120 c18 66 32 126 31 134 -2 7 -52 -39 -111 -104z"/>
    <path d="M5399 2578 c102 -139 118 -155 157 -161 21 -4 40 -5 42 -2 2 2 -2 23
-9 47 -13 39 -22 48 -109 100 -52 32 -99 58 -103 58 -5 0 5 -19 22 -42z"/>
    <path d="M6440 2560 c-96 -54 -106 -62 -118 -100 -8 -23 -12 -43 -10 -45 2 -2
23 -1 47 2 40 5 48 12 118 100 42 51 74 95 72 97 -2 3 -51 -22 -109 -54z"/>
    <path d="M5837 2524 c-19 -67 -18 -80 7 -92 20 -9 27 -7 47 14 l23 25 -36 36
c-32 31 -36 33 -41 17z"/>
    <path d="M6031 2496 c-20 -21 -21 -26 -9 -45 8 -13 21 -20 33 -19 16 2 20 10
18 37 -2 47 -15 56 -42 27z"/>
    <path d="M5670 2438 c0 -24 25 -50 45 -47 27 6 22 22 -13 42 -25 15 -32 16
-32 5z"/>
    <path d="M6203 2428 c-27 -13 -30 -38 -5 -38 21 0 42 18 42 37 0 15 -7 15 -37
1z"/>
    <path fill="#FFFFFF" d="M5890 2391 c-109 -28 -163 -74 -205 -173 -34 -84 -4 -191 75 -261
111 -101 229 -101 338 -2 58 52 82 107 82 186 -1 125 -70 209 -220 265 -3 1
-34 -5 -70 -15z m147 -97 c51 -39 67 -70 71 -142 2 -51 -1 -75 -16 -101 -27
-50 -89 -90 -147 -97 -124 -14 -234 122 -195 240 15 47 56 95 95 112 45 21
157 14 192 -12z"/>
    <path d="M5240 2394 c0 -5 45 -38 100 -74 99 -65 114 -69 167 -49 l23 9 -25
39 c-25 37 -30 39 -113 55 -48 8 -102 18 -119 22 -18 4 -33 3 -33 -2z"/>
    <path d="M6550 2378 c-89 -16 -108 -23 -128 -46 -46 -55 -46 -60 -3 -73 39
-12 41 -11 150 57 103 65 128 86 99 83 -7 -1 -60 -10 -118 -21z"/>
    <path d="M5590 2331 c0 -13 26 -32 33 -24 8 7 -11 33 -24 33 -5 0 -9 -4 -9 -9z"/>
    <path d="M6290 2325 c-19 -23 -1 -39 21 -19 10 9 19 21 19 26 0 13 -27 9 -40
-7z"/>
    <path d="M5553 2212 c-33 -5 -28 -24 13 -50 40 -26 63 -18 45 15 -15 29 -33
39 -58 35z"/>
    <path d="M6308 2185 c-31 -42 -15 -48 34 -14 23 17 27 24 16 30 -21 14 -32 10
-50 -16z"/>
    <path d="M5305 2135 c-176 -54 -171 -48 -54 -78 169 -44 159 -44 222 -2 31 21
54 41 51 46 -7 12 -91 69 -101 69 -4 -1 -57 -16 -118 -35z"/>
    <path d="M6427 2140 c-26 -16 -47 -33 -47 -37 0 -5 28 -25 61 -46 l61 -37 131
31 c73 17 133 32 134 33 2 1 -57 19 -130 40 -72 20 -139 39 -147 42 -9 2 -37
-9 -63 -26z"/>
    <path d="M6285 2050 c-3 -6 3 -23 14 -39 21 -29 30 -30 80 -15 10 3 0 15 -30
34 -48 33 -55 35 -64 20z"/>
    <path d="M5557 2024 c-44 -29 -45 -34 -12 -34 15 0 31 10 41 25 23 36 14 39
-29 9z"/>
    <path d="M5640 1970 c0 -5 5 -10 10 -10 6 0 10 5 10 10 0 6 -4 10 -10 10 -5 0
-10 -4 -10 -10z"/>
    <path d="M5347 1889 c-43 -28 -76 -53 -74 -56 3 -2 51 6 107 18 74 17 104 29
112 42 12 23 3 33 -37 41 -25 5 -44 -3 -108 -45z"/>
    <path d="M6412 1930 c-44 -10 -46 -14 -27 -43 14 -22 31 -28 138 -47 67 -11
133 -23 147 -26 35 -7 21 4 -84 70 -90 56 -110 61 -174 46z"/>
    <path d="M6260 1890 c-12 -8 -9 -10 13 -10 16 0 26 4 22 10 -8 12 -16 12 -35
0z"/>
    <path d="M5700 1820 c0 -19 11 -26 23 -14 8 8 -3 34 -14 34 -5 0 -9 -9 -9 -20z"/>
    <path d="M5556 1816 c-26 -8 -51 -18 -55 -23 -3 -6 -33 -45 -65 -87 -32 -42
-57 -78 -55 -80 2 -2 55 24 117 58 88 47 114 67 118 86 3 14 8 33 11 43 5 20
-4 20 -71 3z"/>
    <path d="M6144 1819 c-4 -7 1 -18 11 -26 27 -19 36 -16 26 9 -9 26 -26 34 -37
17z"/>
    <path d="M5925 1800 c17 -19 19 -19 37 -4 24 23 24 24 -19 24 -36 0 -36 0 -18
-20z"/>
    <path d="M6260 1775 c0 -28 7 -43 28 -61 32 -28 201 -134 213 -134 13 0 -134
209 -151 214 -8 3 -32 8 -52 12 l-38 6 0 -37z"/>
    <path d="M5827 1783 c-10 -9 -8 -42 4 -87 l11 -38 24 23 c30 28 30 47 -1 82
-26 29 -28 30 -38 20z"/>
    <path d="M6016 1751 c-29 -30 -29 -30 -10 -58 l18 -28 13 45 c19 65 13 77 -21
41z"/>
    <path d="M5696 1708 c-20 -18 -30 -47 -50 -138 -33 -150 -41 -208 -29 -195 46
47 163 200 163 213 0 10 -4 33 -9 52 -5 19 -12 47 -15 63 -8 33 -27 34 -60 5z"/>
    <path d="M6100 1673 c-7 -32 -14 -63 -17 -69 -2 -6 33 -61 79 -123 45 -62 84
-107 86 -101 5 14 -38 271 -49 292 -8 14 -68 58 -81 58 -3 0 -11 -26 -18 -57z"/>
    <path d="M5897 1605 l-35 -45 23 -93 c13 -50 26 -105 30 -122 9 -41 17 -25 54
115 l31 114 -25 38 c-14 21 -29 38 -34 38 -4 0 -24 -20 -44 -45z"/>
    <path d="M6647 3299 c7 -7 15 -10 18 -7 3 3 -2 9 -12 12 -14 6 -15 5 -6 -5z"/>
    <path d="M6717 3249 c7 -7 15 -10 18 -7 3 3 -2 9 -12 12 -14 6 -15 5 -6 -5z"/>
    <path d="M6750 3236 c0 -2 8 -10 18 -17 15 -13 16 -12 3 4 -13 16 -21 21 -21
13z"/>
    <path d="M6835 3160 c10 -11 20 -20 23 -20 3 0 -3 9 -13 20 -10 11 -20 20 -23
20 -3 0 3 -9 13 -20z"/>
    <path d="M4954 3098 l-19 -23 23 19 c21 18 27 26 19 26 -2 0 -12 -10 -23 -22z"/>
    <path d="M6900 3096 c0 -2 8 -10 18 -17 15 -13 16 -12 3 4 -13 16 -21 21 -21
13z"/>
    <path d="M4884 3018 l-19 -23 23 19 c12 11 22 21 22 23 0 8 -8 2 -26 -19z"/>
    <path d="M6960 3036 c0 -2 8 -10 18 -17 15 -13 16 -12 3 4 -13 16 -21 21 -21
13z"/>
    <path d="M4824 2945 c-9 -14 -15 -27 -13 -30 3 -2 12 10 21 26 21 36 15 39 -8
4z"/>
    <path d="M4750 2829 c-7 -11 -10 -23 -7 -25 2 -2 9 7 15 21 14 30 7 33 -8 4z"/>
    <path d="M7100 2844 c0 -6 7 -19 16 -30 14 -18 14 -18 3 6 -14 31 -19 36 -19
24z"/>
    <path d="M4686 2705 c-9 -26 -7 -32 5 -12 6 10 9 21 6 23 -2 3 -7 -2 -11 -11z"/>
    <path d="M7176 2700 c4 -14 13 -38 20 -55 11 -24 13 -25 8 -5 -4 14 -13 39
-20 55 -11 24 -13 25 -8 5z"/>
    <path d="M4616 2501 c-9 -38 -16 -78 -15 -88 0 -10 9 20 20 66 10 47 17 86 15
89 -2 2 -11 -28 -20 -67z"/>
    <path d="M7241 2524 c0 -11 3 -14 6 -6 3 7 2 16 -1 19 -3 4 -6 -2 -5 -13z"/>
    <path d="M7251 2484 c0 -11 3 -14 6 -6 3 7 2 16 -1 19 -3 4 -6 -2 -5 -13z"/>
    <path d="M4572 2200 c0 -14 2 -19 5 -12 2 6 2 18 0 25 -3 6 -5 1 -5 -13z"/>
    <path d="M4572 2080 c0 -14 2 -19 5 -12 2 6 2 18 0 25 -3 6 -5 1 -5 -13z"/>
    <path d="M4602 1855 c0 -16 2 -22 5 -12 2 9 2 23 0 30 -3 6 -5 -1 -5 -18z"/>
    <path d="M4612 1805 c0 -21 25 -107 27 -90 0 6 -6 33 -13 60 -8 28 -14 41 -14
30z"/>
    <path d="M4676 1610 c3 -14 11 -32 16 -40 6 -10 7 -7 2 10 -3 14 -11 32 -16
40 -6 10 -7 7 -2 -10z"/>
    <path d="M4746 1467 c3 -10 9 -15 12 -12 3 3 0 11 -7 18 -10 9 -11 8 -5 -6z"/>
    <path d="M4870 1286 c0 -2 8 -10 18 -17 15 -13 16 -12 3 4 -13 16 -21 21 -21
13z"/>
    <path d="M4940 1206 c0 -2 8 -10 18 -17 15 -13 16 -12 3 4 -13 16 -21 21 -21
13z"/>
    <path d="M5074 1081 c7 -11 46 -35 46 -28 0 3 -12 12 -26 22 -15 9 -23 12 -20
6z"/>
    <path d="M5169 1011 c13 -12 28 -21 34 -21 12 0 11 0 -28 24 l-30 17 24 -20z"/>
    <path d="M6680 1010 c-9 -6 -10 -10 -3 -10 6 0 15 5 18 10 8 12 4 12 -15 0z"/>
    <path d="M5274 946 c11 -9 24 -16 30 -16 12 0 7 5 -24 19 -24 11 -24 11 -6 -3z"/>
    <path d="M6570 945 c-14 -8 -20 -14 -14 -15 5 0 19 7 30 15 24 18 16 19 -16 0z"/>
    <path d="M5426 875 c17 -7 44 -16 60 -20 25 -4 24 -3 -6 8 -19 8 -46 17 -60
20 -19 5 -17 3 6 -8z"/>
    <path d="M6410 875 c-19 -7 -28 -14 -20 -14 8 0 29 6 45 14 39 17 21 18 -25 0z"/>
    <path d="M6348 853 c7 -3 16 -2 19 1 4 3 -2 6 -13 5 -11 0 -14 -3 -6 -6z"/>
    <path d="M5618 813 c6 -2 18 -2 25 0 6 3 1 5 -13 5 -14 0 -19 -2 -12 -5z"/>
    <path d="M6190 814 c-8 -3 -51 -9 -95 -14 l-80 -9 85 5 c74 3 182 23 125 22
-11 0 -27 -2 -35 -4z"/>
    <path d="M5695 800 c40 -9 142 -13 134 -6 -2 2 -42 6 -89 9 -59 3 -73 3 -45
-3z"/>
    <path d="M5918 793 c7 -3 16 -2 19 1 4 3 -2 6 -13 5 -11 0 -14 -3 -6 -6z"/>
    <path d="M5853 783 c9 -2 25 -2 35 0 9 3 1 5 -18 5 -19 0 -27 -2 -17 -5z"/>
    <path d="M5963 783 c9 -2 25 -2 35 0 9 3 1 5 -18 5 -19 0 -27 -2 -17 -5z"/>
    <path d="M20113 3513 c9 -2 25 -2 35 0 9 3 1 5 -18 5 -19 0 -27 -2 -17 -5z"/>
    <path d="M20235 3510 c40 -9 132 -13 124 -6 -2 2 -40 6 -84 9 -57 4 -69 3 -40
-3z"/>
    <path d="M19960 3500 c-21 -5 -3 -6 45 -3 44 3 82 7 84 9 8 7 -93 2 -129 -6z"/>
    <path d="M20383 3493 c9 -2 25 -2 35 0 9 3 1 5 -18 5 -19 0 -27 -2 -17 -5z"/>
    <path d="M20448 3483 c7 -3 16 -2 19 1 4 3 -2 6 -13 5 -11 0 -14 -3 -6 -6z"/>
    <path d="M19798 3453 c7 -3 16 -2 19 1 4 3 -2 6 -13 5 -11 0 -14 -3 -6 -6z"/>
    <path d="M20548 3453 c7 -3 16 -2 19 1 4 3 -2 6 -13 5 -11 0 -14 -3 -6 -6z"/>
    <path fill="#FFFFFF" d="M20135 3339 c-572 -42 -1064 -465 -1172 -1009 -24 -119 -24 -385 0
-498 50 -234 163 -436 344 -614 106 -105 196 -168 338 -238 404 -200 865 -182
1277 50 49 28 94 48 100 44 7 -4 8 -3 4 4 -4 7 3 16 18 21 25 10 198 179 252
247 17 22 43 63 59 92 15 28 32 52 37 52 4 0 8 5 8 11 0 6 15 42 34 80 19 38
44 108 56 156 12 49 27 99 34 112 15 33 15 429 -1 462 -6 13 -17 47 -24 74 -6
28 -15 55 -19 60 -4 6 -13 28 -20 50 -18 58 -97 211 -140 275 -264 385 -719
603 -1185 569z m311 -84 c103 -18 251 -65 338 -108 192 -93 382 -261 489 -429
183 -289 233 -643 136 -970 -134 -453 -553 -783 -1049 -827 -128 -12 -122 -12
-250 0 -533 48 -967 417 -1076 916 -24 109 -24 366 -1 486 70 352 304 651 643
820 89 45 245 96 343 112 107 18 321 18 427 0z"/>
    <path fill="#FFFFFF" d="M20075 3170 c-71 -10 -222 -53 -284 -81 -40 -17 -43 -21 -29 -37 154
-183 292 -342 294 -340 1 2 22 89 45 193 23 105 47 196 52 203 11 14 43 16 51
4 3 -5 35 -103 71 -218 37 -115 70 -212 73 -215 4 -4 49 39 100 95 181 198
219 236 235 236 24 0 38 -33 28 -67 -23 -71 -91 -320 -91 -332 0 -9 9 -7 33 7
250 149 334 186 338 148 3 -27 -8 -44 -108 -172 -58 -74 -103 -138 -99 -141 5
-5 195 25 331 52 29 6 47 -9 43 -36 -2 -18 -40 -48 -167 -129 -90 -58 -163
-110 -161 -115 2 -6 57 -25 124 -43 229 -63 261 -75 264 -99 4 -28 -13 -36
-113 -57 -44 -10 -120 -27 -169 -38 -105 -24 -114 -10 86 -134 75 -47 138 -91
141 -98 3 -8 0 -22 -7 -31 -12 -16 -23 -16 -182 9 -93 15 -186 31 -207 35 -20
5 -39 6 -41 2 -2 -3 45 -77 106 -164 60 -87 108 -165 106 -174 -2 -9 -10 -20
-19 -26 -13 -8 -53 12 -194 102 -97 62 -179 111 -181 109 -2 -3 11 -94 30
-204 21 -129 30 -205 24 -217 -21 -40 -47 -18 -163 138 -63 85 -119 155 -124
155 -5 0 -14 -21 -20 -47 -51 -210 -85 -313 -104 -319 -13 -4 -25 -1 -32 9 -6
8 -29 90 -50 181 -22 91 -43 166 -47 166 -4 0 -63 -68 -130 -150 -68 -83 -130
-150 -139 -150 -47 0 -45 27 36 375 13 55 22 101 20 103 -1 2 -87 -42 -190
-98 -107 -58 -197 -100 -209 -98 -47 7 -31 43 79 178 59 72 105 133 103 135
-2 2 -80 -12 -172 -31 -93 -19 -177 -32 -188 -29 -28 10 -21 41 15 68 17 13
85 57 150 97 64 40 117 77 117 81 0 4 -53 19 -117 34 -193 44 -226 53 -234 67
-22 33 3 50 118 82 170 47 263 78 258 86 -3 4 -77 56 -165 114 -114 76 -160
112 -160 126 0 38 29 40 200 9 90 -16 170 -28 177 -27 7 2 -34 62 -97 142 -61
77 -110 147 -110 156 0 10 7 23 15 30 17 14 18 14 223 -104 74 -42 137 -76
142 -76 4 0 -2 39 -15 88 -13 48 -37 141 -55 207 -17 66 -33 126 -35 133 -7
20 -146 -80 -235 -169 -76 -75 -166 -199 -213 -294 -103 -208 -132 -473 -77
-695 24 -99 110 -281 170 -360 155 -206 366 -351 598 -410 550 -139 1104 167
1286 710 157 469 -85 1017 -553 1255 -175 88 -418 131 -596 105z"/>
    <path d="M20171 2894 c-5 -22 -19 -87 -31 -146 -25 -118 -26 -109 38 -182 37
-43 49 -42 86 6 l26 34 -20 65 c-49 165 -76 248 -82 254 -4 4 -11 -10 -17 -31z"/>
    <path d="M19812 2859 c3 -8 22 -79 43 -159 20 -80 42 -151 48 -158 12 -15 81
-52 95 -52 11 0 32 76 32 112 0 16 -35 66 -101 144 -97 113 -129 144 -117 113z"/>
    <path d="M20480 2704 c-58 -64 -105 -119 -105 -122 2 -25 30 -92 39 -92 6 0
34 13 62 30 51 29 52 30 73 112 12 46 29 103 37 127 28 88 20 84 -106 -55z"/>
    <path d="M19612 2612 c6 -19 133 -181 144 -186 6 -2 32 -7 57 -11 l46 -7 -12
43 c-13 46 -17 48 -170 132 -38 21 -67 34 -65 29z"/>
    <path d="M20700 2564 c-112 -65 -115 -68 -129 -117 l-10 -39 42 7 c23 4 47 10
54 14 16 9 156 191 146 191 -4 -1 -51 -26 -103 -56z"/>
    <path d="M20083 2493 c-10 -40 -9 -49 5 -60 25 -19 38 -16 56 12 16 24 16 27
-10 60 -14 19 -30 35 -34 35 -3 0 -11 -21 -17 -47z"/>
    <path d="M20290 2495 c-19 -20 -22 -30 -14 -43 14 -22 52 -28 60 -9 3 8 -1 29
-8 46 l-13 33 -25 -27z"/>
    <path d="M19930 2420 c0 -12 9 -24 23 -29 45 -17 51 11 7 34 -29 15 -30 15
-30 -5z"/>
    <path d="M20452 2424 c-30 -21 -28 -36 6 -32 19 2 28 9 30 26 4 26 -5 28 -36
6z"/>
    <path fill="#FFFFFF" d="M20140 2391 c-83 -21 -133 -52 -169 -105 -72 -105 -67 -214 16 -306
88 -98 191 -124 291 -73 111 56 175 170 153 274 -23 108 -84 170 -221 225 -3
1 -34 -5 -70 -15z m124 -85 c55 -23 90 -78 94 -151 5 -77 -18 -125 -81 -170
-35 -25 -52 -30 -99 -30 -46 0 -64 5 -100 30 -46 32 -88 101 -88 145 0 73 46
151 105 176 40 17 127 18 169 0z"/>
    <path d="M19470 2395 c0 -3 48 -37 106 -75 109 -72 109 -72 172 -49 28 11 27
17 -6 56 -25 28 -37 33 -144 52 -130 23 -128 23 -128 16z"/>
    <path d="M20805 2379 c-96 -18 -101 -20 -137 -61 l-38 -43 38 -13 c26 -9 44
-10 59 -3 23 11 192 118 208 132 12 12 -12 10 -130 -12z"/>
    <path d="M19830 2331 c0 -5 7 -14 15 -21 12 -10 19 -10 28 -1 9 9 9 14 -3 21
-19 12 -40 13 -40 1z"/>
    <path d="M20552 2331 c-8 -5 -12 -17 -10 -26 3 -18 4 -18 21 -1 28 28 20 47
-11 27z"/>
    <path d="M19793 2209 c-13 -5 -23 -11 -23 -14 0 -2 18 -17 40 -31 50 -33 74
-22 44 20 -24 32 -33 35 -61 25z"/>
    <path d="M20561 2183 c-28 -34 -18 -42 24 -18 38 20 43 30 19 39 -22 8 -20 9
-43 -21z"/>
    <path d="M19540 2135 c-185 -54 -182 -48 -34 -84 71 -17 135 -31 141 -31 7 0
39 18 73 39 l60 39 -54 36 c-30 20 -58 36 -63 36 -4 -1 -60 -16 -123 -35z"/>
    <path d="M20677 2138 c-26 -17 -47 -33 -47 -37 1 -3 30 -23 65 -43 l64 -38
131 31 c72 18 129 33 128 34 -3 4 -227 68 -268 78 -18 5 -39 -2 -73 -25z"/>
    <path d="M20546 2053 c-11 -11 -6 -29 14 -50 16 -18 25 -20 51 -13 18 5 33 11
35 12 2 2 -19 16 -45 31 -27 14 -51 24 -55 20z"/>
    <path d="M19795 2023 c-35 -23 -37 -27 -20 -33 14 -6 28 0 48 18 26 25 35 43
20 41 -5 0 -26 -12 -48 -26z"/>
    <path d="M19901 1986 c-8 -9 -11 -19 -7 -23 9 -9 29 13 24 27 -2 8 -8 7 -17
-4z"/>
    <path d="M19577 1888 c-42 -28 -75 -53 -73 -55 5 -5 139 22 193 38 18 6 35 19
38 30 8 26 8 26 -40 32 -36 5 -48 0 -118 -45z"/>
    <path d="M20658 1928 c-39 -10 -39 -13 -11 -55 5 -6 62 -21 128 -32 66 -12
131 -24 145 -27 22 -5 23 -4 10 9 -8 8 -52 38 -98 66 -86 53 -106 57 -174 39z"/>
    <path d="M20515 1890 c-3 -5 3 -10 15 -10 12 0 18 5 15 10 -3 6 -10 10 -15 10
-5 0 -12 -4 -15 -10z"/>
    <path d="M19956 1834 c-9 -22 -8 -24 9 -24 8 0 15 6 15 14 0 22 -17 28 -24 10z"/>
    <path d="M19797 1816 c-26 -7 -49 -15 -51 -17 -46 -54 -137 -172 -134 -175 3
-2 60 26 127 62 87 47 125 73 132 91 21 56 11 62 -74 39z"/>
    <path d="M20400 1817 c0 -14 20 -37 32 -37 15 0 8 38 -8 44 -22 8 -24 8 -24
-7z"/>
    <path d="M20180 1800 c6 -11 14 -20 18 -20 4 0 13 9 20 20 11 18 10 20 -18 20
-28 0 -30 -2 -20 -20z"/>
    <path d="M20510 1798 c0 -7 5 -29 10 -48 9 -30 25 -44 120 -104 61 -38 113
-67 115 -64 5 4 -117 185 -138 204 -19 18 -107 28 -107 12z"/>
    <path d="M20074 1775 c-7 -18 15 -115 26 -115 5 0 18 13 30 30 l21 30 -27 35
c-29 38 -41 43 -50 20z"/>
    <path d="M20273 1751 c-27 -35 -27 -40 -8 -65 13 -17 15 -15 25 24 17 62 10
78 -17 41z"/>
    <path d="M19958 1724 c-16 -8 -28 -17 -28 -20 0 -2 -16 -77 -36 -165 -20 -88
-34 -163 -31 -165 6 -6 160 181 168 204 3 9 2 30 -2 47 -4 16 -13 49 -19 73
-12 47 -13 47 -52 26z"/>
    <path d="M20355 1678 c-8 -28 -15 -61 -15 -73 0 -19 147 -233 161 -235 6 0 -2
58 -32 242 -10 61 -13 68 -50 92 -21 14 -41 26 -43 26 -3 0 -12 -23 -21 -52z"/>
    <path d="M20152 1605 l-34 -44 28 -120 c15 -67 31 -121 34 -121 6 0 70 232 70
253 0 14 -45 77 -55 77 -5 -1 -25 -20 -43 -45z"/>
  </g>
</svg>
